<svg width="70" height="49" viewBox="0 0 70 49" fill="none" xmlns="http://www.w3.org/2000/svg">
<path d="M66.5742 33.9335C66.9016 32.4059 66.9016 30.7691 66.5742 29.2415L69.4113 27.6047C69.7386 27.4956 69.8477 27.0591 69.7386 26.7318C68.9748 24.3312 67.7745 22.2579 66.1377 20.4029C65.9195 20.1847 65.483 20.0756 65.1557 20.2938L62.3186 21.9306C61.1183 20.9485 59.8089 20.0756 58.2813 19.6391V16.3656C58.2813 15.9291 58.063 15.6017 57.7357 15.6017C55.226 15.0562 52.8254 15.0562 50.4248 15.6017C50.0974 15.6017 49.8792 15.9291 49.8792 16.3656V19.6391C48.3516 20.0756 47.0421 20.9485 45.8419 21.9306L43.0048 20.2938C42.6774 20.0756 42.241 20.1847 42.0227 20.4029C40.386 22.2579 39.0766 24.3312 38.4218 26.7318C38.3127 27.0591 38.4218 27.4956 38.7492 27.6047L41.5863 29.2415C41.2589 30.7691 41.2589 32.4059 41.5863 33.9335L38.7492 35.5703C38.4218 35.6794 38.3127 36.1159 38.4218 36.4432C39.0766 38.8438 40.386 40.9171 42.0227 42.7721C42.241 42.9903 42.6774 43.0994 43.0048 42.8812L45.8419 41.2444C47.0421 42.2265 48.3516 43.0994 49.8792 43.5359V46.8094C49.8792 47.2459 50.0974 47.5732 50.4248 47.5732C52.9345 48.1188 55.3351 48.1188 57.7357 47.5732C58.063 47.5732 58.2813 47.2459 58.2813 46.8094V43.5359C59.8089 43.0994 61.1183 42.2265 62.3186 41.2444L65.1557 42.8812C65.483 43.0994 65.9195 42.9903 66.1377 42.7721C67.7745 40.9171 68.9748 38.8438 69.7386 36.4432C69.8477 36.1159 69.7386 35.6794 69.4113 35.5703L66.5742 33.9335ZM54.1348 36.8797C51.1886 36.8797 48.788 34.4791 48.788 31.5329C48.788 28.6959 51.1886 26.2953 54.1348 26.2953C56.9719 26.2953 59.3724 28.6959 59.3724 31.5329C59.3724 34.4791 56.9719 36.8797 54.1348 36.8797ZM10.4877 21.0576C14.3068 21.0576 17.4712 18.0023 17.4712 14.0741C17.4712 10.255 14.3068 7.09057 10.4877 7.09057C6.55948 7.09057 3.50418 10.255 3.50418 14.0741C3.50418 18.0023 6.55948 21.0576 10.4877 21.0576ZM34.9301 24.5494C35.0392 24.5494 35.2574 24.5494 35.4757 24.5494C36.3486 22.1488 37.7671 19.9665 39.4039 18.1115C40.2768 17.2385 41.368 16.6929 42.5683 16.6929C43.3321 16.6929 44.096 16.9112 44.7507 17.2385L45.6236 17.7841C45.7327 17.675 45.7327 17.675 45.8419 17.675C46.6057 16.0382 47.0421 14.2923 47.0421 12.4373C47.0421 5.67204 41.5863 0.216154 34.821 0.216154C28.1648 0.216154 22.7089 5.67204 22.7089 12.3282C22.7089 19.0935 28.1648 24.5494 34.9301 24.5494ZM46.3874 45.8274C46.0601 45.7182 45.8419 45.5 45.6236 45.3909C44.7507 45.9365 43.9869 46.4821 42.5683 46.4821C41.4771 46.4821 40.2768 45.9365 39.513 45.0635C37.4398 42.8812 35.9121 40.2624 35.0392 37.5344C33.948 33.7153 37.7671 32.0785 37.8763 31.9694C37.8763 31.7512 37.8763 31.4238 37.8763 31.2056L37.0033 30.66C36.5668 30.4418 36.2395 30.1144 35.9121 29.7871C35.5848 29.7871 35.2574 29.7871 34.9301 29.7871C32.2021 29.7871 29.6924 29.1323 27.401 28.0412H26.528C19.5445 28.0412 13.9795 33.7153 13.9795 40.6988V43.7541C13.9795 46.7003 16.271 48.9918 19.2171 48.9918H47.0421C46.6057 48.3371 46.3874 47.6824 46.3874 46.8094V45.8274ZM18.8898 26.6226C17.5804 25.4223 15.8345 24.5494 13.9795 24.5494H6.99595C3.06771 24.5494 0.0124168 27.7138 0.0124168 31.5329V35.0247C0.0124168 36.9888 1.54006 38.5165 3.50418 38.5165H10.5968C11.3607 33.3879 14.416 29.0232 18.8898 26.6226Z" fill="#EA6B39"/>
</svg>
